<svg width="1200" height="900" viewBox="0 0 1200 900" xmlns="http://www.w3.org/2000/svg" fill="none">
  <defs>
    <linearGradient id="g1" x1="164" y1="86" x2="982" y2="740" gradientUnits="userSpaceOnUse">
      <stop stop-color="#0B6B82"/>
      <stop offset="1" stop-color="#8FD0D2"/>
    </linearGradient>
    <linearGradient id="g2" x1="860" y1="180" x2="401" y2="756" gradientUnits="userSpaceOnUse">
      <stop stop-color="#D6BDA6"/>
      <stop offset="1" stop-color="#7B8C97"/>
    </linearGradient>
    <filter id="blur" x="-20%" y="-20%" width="140%" height="140%">
      <feGaussianBlur stdDeviation="24"/>
    </filter>
  </defs>
  <rect width="1200" height="900" rx="48" fill="#EDF5F7"/>
  <circle cx="930" cy="164" r="168" fill="url(#g1)" fill-opacity="0.28" filter="url(#blur)"/>
  <circle cx="242" cy="736" r="198" fill="url(#g2)" fill-opacity="0.24" filter="url(#blur)"/>
  <path d="M116 630C224 540 298 754 430 662C560 572 646 288 816 334C918 362 1006 494 1094 458" stroke="#0B6B82" stroke-width="8" stroke-linecap="round" opacity="0.58"/>
  <path d="M148 528C290 452 360 628 526 548C660 482 768 244 972 324C1036 350 1082 392 1128 422" stroke="#8FD0D2" stroke-width="7" stroke-linecap="round" opacity="0.74"/>
  <path d="M210 318C352 252 442 384 584 330C740 270 852 164 1058 232" stroke="#D6BDA6" stroke-width="6" stroke-linecap="round" opacity="0.66"/>
  <g transform="translate(680 148)">
    <rect width="352" height="442" rx="34" fill="white" fill-opacity="0.88" stroke="#DDE7EC" stroke-width="3"/>
    <rect x="44" y="54" width="206" height="18" rx="9" fill="#0B6B82" fill-opacity="0.22"/>
    <rect x="44" y="92" width="154" height="14" rx="7" fill="#0B6B82" fill-opacity="0.16"/>
    <rect x="44" y="154" width="236" height="14" rx="7" fill="#0B6B82" fill-opacity="0.14"/>
    <rect x="44" y="188" width="188" height="14" rx="7" fill="#0B6B82" fill-opacity="0.12"/>
    <g transform="translate(44 286)">
      <rect width="238" height="68" rx="18" fill="url(#g1)" fill-opacity="0.22" stroke="#6AAEBC" stroke-opacity="0.35"/>
      <path d="M30 34H156" stroke="#0B6B82" stroke-width="6" stroke-linecap="round"/>
      <path d="M156 24L180 34L156 44" stroke="#0B6B82" stroke-width="6" stroke-linecap="round" stroke-linejoin="round"/>
    </g>
  </g>
  <g transform="translate(164 140)">
    <circle cx="262" cy="212" r="182" fill="white" fill-opacity="0.86" stroke="#DDE7EC" stroke-width="3"/>
    <circle cx="262" cy="212" r="128" stroke="#0B6B82" stroke-opacity="0.18" stroke-width="3"/>
    <circle cx="262" cy="212" r="78" stroke="#0B6B82" stroke-opacity="0.14" stroke-width="3"/>
    <path d="M82 212C154 112 370 112 442 212C370 312 154 312 82 212Z" stroke="#0B6B82" stroke-width="8" stroke-linecap="round" opacity="0.52"/>
    <path d="M114 152C182 198 342 198 410 152" stroke="#8FD0D2" stroke-width="7" stroke-linecap="round" opacity="0.72"/>
    <path d="M114 270C182 226 342 226 410 270" stroke="#D6BDA6" stroke-width="6" stroke-linecap="round" opacity="0.62"/>
  </g>
</svg>
