<svg width="1200" height="800" viewBox="0 0 1200 800" xmlns="http://www.w3.org/2000/svg" fill="none">
  <defs>
    <linearGradient id="ctl1" x1="126" y1="120" x2="952" y2="662" gradientUnits="userSpaceOnUse">
      <stop stop-color="#0A596E"/>
      <stop offset="1" stop-color="#8FD0D2"/>
    </linearGradient>
    <linearGradient id="ctl2" x1="944" y1="162" x2="518" y2="684" gradientUnits="userSpaceOnUse">
      <stop stop-color="#D6BDA6"/>
      <stop offset="1" stop-color="#95A6B0"/>
    </linearGradient>
  </defs>
  <rect width="1200" height="800" rx="40" fill="#F4FAFB"/>
  <circle cx="252" cy="148" r="136" fill="url(#ctl2)" fill-opacity="0.2"/>
  <circle cx="950" cy="612" r="182" fill="url(#ctl1)" fill-opacity="0.18"/>
  <path d="M86 588C206 500 280 714 424 624C564 538 646 302 826 364C926 398 1014 530 1106 488" stroke="#0A596E" stroke-width="8" stroke-linecap="round" opacity="0.56"/>
  <path d="M122 458C266 382 338 574 494 504C648 434 758 210 1008 304" stroke="#8FD0D2" stroke-width="7" stroke-linecap="round" opacity="0.76"/>
  <g transform="translate(314 118)">
    <path d="M168 0C266 46 328 58 328 138C328 262 230 364 168 398C106 364 8 262 8 138C8 58 70 46 168 0Z" fill="white" fill-opacity="0.9" stroke="#D9E6EB" stroke-width="3"/>
    <path d="M100 188L150 238L238 144" stroke="#0A596E" stroke-width="12" stroke-linecap="round" stroke-linejoin="round" opacity="0.74"/>
    <path d="M62 86C112 112 224 112 274 86" stroke="#0A596E" stroke-width="4" stroke-linecap="round" opacity="0.16"/>
  </g>
  <g transform="translate(726 124)">
    <rect width="288" height="366" rx="28" fill="white" fill-opacity="0.9" stroke="#D9E6EB" stroke-width="3"/>
    <rect x="34" y="48" width="206" height="16" rx="8" fill="#0A596E" fill-opacity="0.18"/>
    <rect x="34" y="86" width="168" height="14" rx="7" fill="#0A596E" fill-opacity="0.14"/>
    <rect x="34" y="144" width="214" height="14" rx="7" fill="#0A596E" fill-opacity="0.12"/>
    <rect x="34" y="178" width="180" height="14" rx="7" fill="#0A596E" fill-opacity="0.1"/>
    <rect x="34" y="246" width="214" height="62" rx="18" fill="url(#ctl1)" fill-opacity="0.2" stroke="#66A9B6" stroke-opacity="0.32"/>
  </g>
</svg>
