<svg width="900" height="560" xmlns="http://www.w3.org/2000/svg" class="hero-ill">
 <defs>
  <filter height="140%" width="140%" y="-20%" x="-20%" id="ccA_blur">
   <feGaussianBlur stdDeviation="12"/>
  </filter>
  <linearGradient y2="1" x2="1" y1="0" x1="0" id="ccA_g1">
   <stop stop-opacity="0.95" stop-color="#006780" offset="0"/>
   <stop stop-opacity="0.85" stop-color="#0ea5b7" offset="1"/>
  </linearGradient>
  <linearGradient y2="1" x2="0" y1="0" x1="1" id="ccA_g2">
   <stop stop-opacity="0.85" stop-color="#9fd5d5" offset="0"/>
   <stop stop-opacity="0.55" stop-color="#d0b8a3" offset="1"/>
  </linearGradient>
  <pattern patternUnits="userSpaceOnUse" height="18" width="18" id="ccA_dots">
   <circle id="svg_1" fill="rgba(0,103,128,.10)" r="1.2" cy="2" cx="2"/>
  </pattern>
 </defs>
 <!-- animated silk lines -->
 <!-- shield -->
 <!-- checklist card -->
 <g>
  <title>background</title>
  <rect fill="none" id="canvas_background" height="602" width="802" y="-1" x="-1"/>
 </g>
 <g>
  <title>Layer 1</title>
  <rect id="svg_2" opacity="0.65" fill="url(#ccA_dots)" height="560" width="900" y="0" x="0"/>
  <circle id="svg_3" filter="url(#ccA_blur)" opacity="0.16" fill="url(#ccA_g2)" r="120" cy="130" cx="170"/>
  <circle id="svg_4" filter="url(#ccA_blur)" opacity="0.14" fill="url(#ccA_g1)" r="160" cy="430" cx="750"/>
  <path id="svg_5" opacity="0.52" stroke-linecap="round" stroke-width="6" stroke="#006780" fill="none" d="m40,380c130,-80 220,90 340,15s200,-185 340,-110s120,145 160,75" class="silk s1"/>
  <path id="svg_6" opacity="0.78" stroke-linecap="round" stroke-width="5" stroke="#9fd5d5" fill="none" d="m60,280c150,-70 220,80 370,20s210,-150 360,-50s70,90 100,40" class="silk s2"/>
  <path id="svg_7" opacity="0.66" stroke-linecap="round" stroke-width="4" stroke="#d0b8a3" fill="none" d="m90,205c140,-60 225,50 355,10s195,-135 345,-60s75,80 100,55" class="silk s3"/>
  <g stroke="null" id="svg_13">
   <rect stroke="rgba(2,6,23,.12)" id="svg_14" stroke-width="2" opacity="0.86" fill="#fff" height="282.000009" width="226.999997" ry="22" rx="22" y="139" x="562"/>
   <rect stroke="null" id="svg_15" opacity="0.18" fill="#006780" height="14.1" width="154.359998" ry="10" rx="10" y="183.062501" x="587.424"/>
   <g stroke="null" id="svg_16" opacity="0.9">
    <rect stroke="null" id="svg_17" opacity="0.12" fill="#006780" height="12.3375" width="172.519997" ry="10" rx="10" y="222.718753" x="587.424"/>
    <rect stroke="null" id="svg_18" opacity="0.1" fill="#006780" height="12.3375" width="136.199998" ry="10" rx="10" y="251.800004" x="587.424"/>
    <rect stroke="null" id="svg_19" opacity="0.1" fill="#006780" height="12.3375" width="172.519997" ry="10" rx="10" y="288.812505" x="587.424"/>
    <rect stroke="null" id="svg_20" opacity="0.08" fill="#006780" height="12.3375" width="145.279998" ry="10" rx="10" y="317.893756" x="587.424"/>
   </g>
   <g stroke="null" id="svg_21" opacity="0.95">
    <rect stroke="rgba(0,103,128,.20)" id="svg_22" opacity="0.18" fill="url(#ccA_g1)" height="47.587501" width="172.519997" ry="14" rx="14" y="348.737507" x="587.424"/>
    <path stroke="#006780" id="svg_23" opacity="0.72" stroke-linecap="round" stroke-width="4" d="m603.767999,372.531257l90.799999,0"/>
    <path stroke="#006780" id="svg_24" opacity="0.72" stroke-linejoin="round" stroke-linecap="round" stroke-width="4" fill="none" d="m694.567998,364.600007l18.16,7.93125l-18.16,7.93125"/>
   </g>
  </g>
 </g>
</svg>