<svg class="hero-ill" width="900" height="560" viewBox="0 0 900 560" xmlns="http://www.w3.org/2000/svg" role="img" aria-label="Абстрактная иллюстрация: валютный контроль и безопасность">
                  <defs>
                    <linearGradient id="ctl_g1" x1="0" y1="0" x2="1" y2="1">
                      <stop offset="0" stop-color="#006780" stop-opacity=".95"></stop>
                      <stop offset="1" stop-color="#9fd5d5" stop-opacity=".85"></stop>
                    </linearGradient>
                    <linearGradient id="ctl_g2" x1="1" y1="0" x2="0" y2="1">
                      <stop offset="0" stop-color="#d0b8a3" stop-opacity=".80"></stop>
                      <stop offset="1" stop-color="#918078" stop-opacity=".55"></stop>
                    </linearGradient>
                    <filter id="ctl_blur" x="-20%" y="-20%" width="140%" height="140%">
                      <feGaussianBlur stdDeviation="12"></feGaussianBlur>
                    </filter>
                  </defs>

                  <circle cx="220" cy="140" r="120" fill="url(#ctl_g2)" opacity=".16" filter="url(#ctl_blur)"></circle>
                  <circle cx="740" cy="420" r="150" fill="url(#ctl_g1)" opacity=".14" filter="url(#ctl_blur)"></circle>

                  <path class="silk s1" d="M50 420 C160 340, 230 520, 360 430 S 560 240, 690 320 S 820 490, 870 420" fill="none" stroke="#006780" stroke-width="6" stroke-linecap="round" opacity=".52"></path>
                  <path class="silk s2" d="M70 300 C200 230, 280 390, 420 320 S 620 160, 760 260 S 860 360, 890 300" fill="none" stroke="#9fd5d5" stroke-width="5" stroke-linecap="round" opacity=".76"></path>
                  <path class="silk s3" d="M100 210 C220 150, 300 260, 420 220 S 610 80, 760 160 S 860 240, 890 210" fill="none" stroke="#d0b8a3" stroke-width="4" stroke-linecap="round" opacity=".66"></path>

                  <g transform="translate(300 110)">
                    <path d="M150 0 C240 40, 300 50, 300 120 C300 230, 210 320, 150 350 C90 320, 0 230, 0 120 C0 50, 60 40, 150 0 Z" fill="#fff" opacity=".86" stroke="rgba(2,6,23,.12)" stroke-width="2"></path>
                    <path d="M86 170 L132 216 L216 128" fill="none" stroke="#006780" stroke-width="10" stroke-linecap="round" stroke-linejoin="round" opacity=".72"></path>
                    <path d="M52 78 C96 100, 204 100, 248 78" fill="none" stroke="rgba(0,103,128,.18)" stroke-width="4" stroke-linecap="round"></path>
                  </g>

                  <g transform="translate(610 90)">
                    <rect x="0" y="0" rx="22" ry="22" width="250" height="320" fill="#fff" opacity=".84" stroke="rgba(2,6,23,.12)" stroke-width="2"></rect>
                    <rect x="30" y="54" rx="10" ry="10" width="190" height="16" fill="#006780" opacity=".18"></rect>
                    <rect x="30" y="90" rx="10" ry="10" width="160" height="14" fill="#006780" opacity=".14"></rect>
                    <rect x="30" y="136" rx="10" ry="10" width="190" height="14" fill="#006780" opacity=".12"></rect>
                    <rect x="30" y="168" rx="10" ry="10" width="168" height="14" fill="#006780" opacity=".10"></rect>
                    <rect x="30" y="214" rx="14" ry="14" width="190" height="54" fill="url(#ctl_g1)" opacity=".18" stroke="rgba(0,103,128,.20)"></rect>
                  </g>
                </svg>