<svg width="900" height="560" xmlns="http://www.w3.org/2000/svg" class="hero-ill">
 <defs>
  <filter id="vedA_blur" x="-20%" y="-20%" width="140%" height="140%">
   <feGaussianBlur stdDeviation="12"/>
  </filter>
  <linearGradient id="vedA_g1" x1="0" y1="0" x2="1" y2="1">
   <stop offset="0" stop-color="#006780" stop-opacity="0.95"/>
   <stop offset="1" stop-color="#0ea5b7" stop-opacity="0.85"/>
  </linearGradient>
  <linearGradient id="vedA_g2" x1="1" y1="0" x2="0" y2="1">
   <stop offset="0" stop-color="#9fd5d5" stop-opacity="0.85"/>
   <stop offset="1" stop-color="#d0b8a3" stop-opacity="0.55"/>
  </linearGradient>
 </defs>
 <!-- animated silk routes -->
 <!-- globe -->
 <!-- confirmation card -->
 <g>
  <title>background</title>
  <rect x="-1" y="-1" width="902" height="562" id="canvas_background" fill="none"/>
 </g>
 <g>
  <title>Layer 1</title>
  <circle cx="220" cy="420" r="160" fill="url(#vedA_g2)" opacity="0.15" filter="url(#vedA_blur)" id="svg_1"/>
  <circle cx="720" cy="150" r="140" fill="url(#vedA_g1)" opacity="0.14" filter="url(#vedA_blur)" id="svg_2"/>
  <path class="silk s1" d="m120,360c140,-100 240,-100 380,0s200,100 360,-40" fill="none" stroke="#006780" stroke-width="6" stroke-linecap="round" opacity="0.52" id="svg_3"/>
  <path class="silk s2" d="m140,290c160,-90 290,-80 420,20s160,110 320,-50" fill="none" stroke="#9fd5d5" stroke-width="5" stroke-linecap="round" opacity="0.74" id="svg_4"/>
  <path class="silk s3" d="m170,230c150,-80 300,-70 440,25s160,105 280,-35" fill="none" stroke="#d0b8a3" stroke-width="4" stroke-linecap="round" opacity="0.66" id="svg_5"/>
  <g stroke="null" id="svg_14">
   <rect stroke="rgba(2,6,23,.12)" x="200" y="114" rx="22" ry="22" width="509.000021" height="327.999992" fill="#fff" opacity="0.86" stroke-width="2" id="svg_15"/>
   <g stroke="null" id="svg_16">
    <rect stroke="rgba(0,103,128,.20)" x="245.634485" y="161.377777" rx="16" ry="16" width="150.944834" height="156.711107" fill="url(#vedA_g1)" opacity="0.16" id="svg_17"/>
    <path stroke="#006780" d="m277.227589,245.199997l31.593105,32.799999l59.675865,-65.599998" fill="none" stroke-width="7" stroke-linecap="round" stroke-linejoin="round" opacity="0.78" id="svg_18"/>
   </g>
   <path stroke="rgba(0,103,128,.32)" d="m445.724148,216.044442l189.558628,0" stroke-width="5" stroke-linecap="round" id="svg_19"/>
   <path stroke="rgba(0,103,128,.24)" d="m445.724148,281.644441l214.131043,0" stroke-width="5" stroke-linecap="round" id="svg_20"/>
   <path stroke="rgba(0,103,128,.18)" d="m445.724148,347.244439l168.496559,0" stroke-width="5" stroke-linecap="round" id="svg_21"/>
  </g>
 </g>
</svg>