<svg width="900" height="560" xmlns="http://www.w3.org/2000/svg" class="hero-ill">
 <defs>
  <filter height="140%" width="140%" y="-20%" x="-20%" id="vedB_blur">
   <feGaussianBlur stdDeviation="12"/>
  </filter>
  <linearGradient y2="1" x2="1" y1="0" x1="0" id="vedB_g1">
   <stop stop-opacity="0.95" stop-color="#006780" offset="0"/>
   <stop stop-opacity="0.85" stop-color="#9fd5d5" offset="1"/>
  </linearGradient>
  <linearGradient y2="1" x2="0" y1="0" x1="1" id="vedB_g2">
   <stop stop-opacity="0.8" stop-color="#d0b8a3" offset="0"/>
   <stop stop-opacity="0.55" stop-color="#918078" offset="1"/>
  </linearGradient>
 </defs>
 <!-- map card -->
 <!-- exchange badge -->
 <g>
  <title>background</title>
  <rect fill="none" id="canvas_background" height="602" width="802" y="-1" x="-1"/>
 </g>
 <g>
  <title>Layer 1</title>
  <circle id="svg_1" filter="url(#vedB_blur)" opacity="0.15" fill="url(#vedB_g2)" r="160" cy="420" cx="210"/>
  <circle id="svg_2" filter="url(#vedB_blur)" opacity="0.14" fill="url(#vedB_g1)" r="140" cy="150" cx="730"/>
  <path id="svg_3" opacity="0.52" stroke-linecap="round" stroke-width="6" stroke="#006780" fill="none" d="m80,380c160,-120 280,-120 440,-20s200,120 360,-40" class="silk s1"/>
  <path id="svg_4" opacity="0.74" stroke-linecap="round" stroke-width="5" stroke="#9fd5d5" fill="none" d="m100,300c160,-100 310,-90 460,15s180,115 330,-55" class="silk s2"/>
  <path id="svg_5" opacity="0.66" stroke-linecap="round" stroke-width="4" stroke="#d0b8a3" fill="none" d="m140,235c160,-85 330,-75 485,25s165,105 265,-40" class="silk s3"/>
  <g stroke="null" id="svg_15" opacity="0.95">
   <rect stroke="rgba(2,6,23,.12)" id="svg_16" stroke-width="2" opacity="0.86" fill="#fff" height="182.000008" width="289.99999" ry="22" rx="22" y="204.999992" x="529.00001"/>
   <g stroke="null" id="svg_17">
    <rect stroke="rgba(0,103,128,.20)" id="svg_18" opacity="0.16" fill="url(#vedB_g1)" height="104.650004" width="102.615381" ry="16" rx="16" y="243.674994" x="558.000009"/>
    <path stroke="#006780" id="svg_19" opacity="0.75" stroke-linecap="round" stroke-width="6" d="m587.000008,282.349996l46.846152,0"/>
    <path stroke="#006780" id="svg_20" opacity="0.75" stroke-linejoin="round" stroke-linecap="round" stroke-width="6" fill="none" d="m618.230776,264.149995l20.076922,18.200001l-20.076922,18.200001"/>
    <path stroke="#006780" id="svg_21" opacity="0.55" stroke-linecap="round" stroke-width="6" d="m633.84616,309.649997l-46.846152,0"/>
    <path stroke="#006780" id="svg_22" opacity="0.55" stroke-linejoin="round" stroke-linecap="round" stroke-width="6" fill="none" d="m602.615392,291.449996l-20.076922,18.200001l20.076922,18.200001"/>
   </g>
   <rect stroke="null" id="svg_23" fill="rgba(0,103,128,.12)" height="20.475001" width="107.07692" ry="12" rx="12" y="264.149995" x="685.153851"/>
   <rect stroke="null" id="svg_24" fill="rgba(0,103,128,.10)" height="15.925001" width="133.846149" ry="12" rx="12" y="302.824996" x="685.153851"/>
   <rect stroke="null" id="svg_25" fill="rgba(0,103,128,.08)" height="15.925001" width="95.923074" ry="12" rx="12" y="332.399998" x="685.153851"/>
  </g>
 </g>
</svg>